<mxfile host="Electron" agent="Mozilla/5.0 (X11; Linux x86_64) AppleWebKit/537.36 (KHTML, like Gecko) draw.io/27.0.5 Chrome/134.0.6998.205 Electron/35.3.0 Safari/537.36" version="27.0.5">
  <diagram name="Página-1" id="ztFMWlfKOKHECKkMHyaq">
    <mxGraphModel dx="4740" dy="2680" grid="1" gridSize="10" guides="1" tooltips="1" connect="1" arrows="1" fold="1" page="1" pageScale="1" pageWidth="850" pageHeight="1100" math="0" shadow="0">
      <root>
        <mxCell id="0" />
        <mxCell id="1" parent="0" />
        <mxCell id="DnySy9knM9GUUwWtsOCn-65" value="" style="rounded=1;whiteSpace=wrap;html=1;align=center;verticalAlign=middle;fontFamily=Helvetica;fontSize=12;dashed=1;dashPattern=8 8;" parent="1" vertex="1">
          <mxGeometry x="2250" y="340" width="1030" height="140" as="geometry" />
        </mxCell>
        <mxCell id="DnySy9knM9GUUwWtsOCn-58" value="" style="rounded=1;whiteSpace=wrap;html=1;align=center;verticalAlign=middle;fontFamily=Helvetica;fontSize=12;dashed=1;dashPattern=8 8;" parent="1" vertex="1">
          <mxGeometry x="90" y="70" width="2620" height="190" as="geometry" />
        </mxCell>
        <mxCell id="DnySy9knM9GUUwWtsOCn-57" value="" style="rounded=1;whiteSpace=wrap;html=1;align=center;verticalAlign=middle;fontFamily=Helvetica;fontSize=12;dashed=1;dashPattern=8 8;" parent="1" vertex="1">
          <mxGeometry x="90" y="300" width="2010" height="180" as="geometry" />
        </mxCell>
        <mxCell id="DnySy9knM9GUUwWtsOCn-2" value="&lt;font style=&quot;color: rgb(77, 77, 77);&quot;&gt;HIRING&lt;/font&gt;" style="rounded=0;whiteSpace=wrap;html=1;fillColor=#ffe6cc;strokeColor=#d79b00;" parent="1" vertex="1">
          <mxGeometry x="2770" y="70" width="120" height="60" as="geometry" />
        </mxCell>
        <mxCell id="DnySy9knM9GUUwWtsOCn-3" value="Создано задание" style="rounded=0;whiteSpace=wrap;html=1;fillColor=#f0a30a;strokeColor=#BD7000;fontColor=#ffffff;" parent="1" vertex="1">
          <mxGeometry x="720" y="130" width="120" height="60" as="geometry" />
        </mxCell>
        <mxCell id="DnySy9knM9GUUwWtsOCn-5" value="Менеджер" style="shape=note;whiteSpace=wrap;html=1;backgroundOutline=1;darkOpacity=0.05;fillColor=#FEE750;strokeColor=none;fontSize=18;fontStyle=0;rotation=0;shadow=1;rounded=0;align=center;verticalAlign=middle;fontFamily=Helvetica;fontColor=#4D4D4D;" parent="1" vertex="1">
          <mxGeometry x="480" y="90" width="120" height="120" as="geometry" />
        </mxCell>
        <mxCell id="DnySy9knM9GUUwWtsOCn-6" value="Создать задание" style="rounded=0;whiteSpace=wrap;html=1;fillColor=#dae8fc;strokeColor=#6c8ebf;align=center;verticalAlign=middle;fontFamily=Helvetica;fontSize=12;fontColor=#4D4D4D;" parent="1" vertex="1">
          <mxGeometry x="600" y="130" width="120" height="60" as="geometry" />
        </mxCell>
        <mxCell id="DnySy9knM9GUUwWtsOCn-9" value="Задание отправлено во внешнюю систему" style="rounded=0;whiteSpace=wrap;html=1;fillColor=#f0a30a;strokeColor=#BD7000;fontColor=#ffffff;" parent="1" vertex="1">
          <mxGeometry x="2890" y="70" width="120" height="60" as="geometry" />
        </mxCell>
        <mxCell id="DnySy9knM9GUUwWtsOCn-10" value="Кандидат" style="shape=note;whiteSpace=wrap;html=1;backgroundOutline=1;darkOpacity=0.05;fillColor=#FEE750;strokeColor=none;fontSize=18;fontStyle=0;rotation=0;shadow=1;rounded=0;align=center;verticalAlign=middle;fontFamily=Helvetica;fontColor=#4D4D4D;" parent="1" vertex="1">
          <mxGeometry x="500" y="320" width="120" height="120" as="geometry" />
        </mxCell>
        <mxCell id="DnySy9knM9GUUwWtsOCn-11" value="войти в систему" style="rounded=0;whiteSpace=wrap;html=1;fillColor=#dae8fc;strokeColor=#6c8ebf;align=center;verticalAlign=middle;fontFamily=Helvetica;fontSize=12;fontColor=#4D4D4D;" parent="1" vertex="1">
          <mxGeometry x="620" y="350" width="120" height="60" as="geometry" />
        </mxCell>
        <mxCell id="DnySy9knM9GUUwWtsOCn-12" value="Кандидат вошел в систему" style="rounded=0;whiteSpace=wrap;html=1;fillColor=#f0a30a;strokeColor=#BD7000;fontColor=#ffffff;" parent="1" vertex="1">
          <mxGeometry x="740" y="350" width="120" height="60" as="geometry" />
        </mxCell>
        <mxCell id="DnySy9knM9GUUwWtsOCn-16" value="Менеджер" style="shape=note;whiteSpace=wrap;html=1;backgroundOutline=1;darkOpacity=0.05;fillColor=#FEE750;strokeColor=none;fontSize=18;fontStyle=0;rotation=0;shadow=1;rounded=0;align=center;verticalAlign=middle;fontFamily=Helvetica;fontColor=#4D4D4D;" parent="1" vertex="1">
          <mxGeometry x="120" y="90" width="120" height="120" as="geometry" />
        </mxCell>
        <mxCell id="DnySy9knM9GUUwWtsOCn-17" value="войти в систему" style="rounded=0;whiteSpace=wrap;html=1;fillColor=#dae8fc;strokeColor=#6c8ebf;align=center;verticalAlign=middle;fontFamily=Helvetica;fontSize=12;fontColor=#4D4D4D;" parent="1" vertex="1">
          <mxGeometry x="240" y="130" width="120" height="60" as="geometry" />
        </mxCell>
        <mxCell id="DnySy9knM9GUUwWtsOCn-18" value="Менеджер вошел в систему" style="rounded=0;whiteSpace=wrap;html=1;fillColor=#f0a30a;strokeColor=#BD7000;fontColor=#ffffff;" parent="1" vertex="1">
          <mxGeometry x="360" y="130" width="120" height="60" as="geometry" />
        </mxCell>
        <mxCell id="DnySy9knM9GUUwWtsOCn-19" value="Кандидат" style="shape=note;whiteSpace=wrap;html=1;backgroundOutline=1;darkOpacity=0.05;fillColor=#FEE750;strokeColor=none;fontSize=18;fontStyle=0;rotation=0;shadow=1;rounded=0;align=center;verticalAlign=middle;fontFamily=Helvetica;fontColor=#4D4D4D;" parent="1" vertex="1">
          <mxGeometry x="110" y="320" width="120" height="120" as="geometry" />
        </mxCell>
        <mxCell id="DnySy9knM9GUUwWtsOCn-20" value="зарегистрироваться" style="rounded=0;whiteSpace=wrap;html=1;fillColor=#dae8fc;strokeColor=#6c8ebf;align=center;verticalAlign=middle;fontFamily=Helvetica;fontSize=12;fontColor=#4D4D4D;" parent="1" vertex="1">
          <mxGeometry x="230" y="350" width="120" height="60" as="geometry" />
        </mxCell>
        <mxCell id="DnySy9knM9GUUwWtsOCn-21" value="Появился новый кандидат" style="rounded=0;whiteSpace=wrap;html=1;fillColor=#f0a30a;strokeColor=#BD7000;fontColor=#ffffff;" parent="1" vertex="1">
          <mxGeometry x="350" y="350" width="120" height="60" as="geometry" />
        </mxCell>
        <mxCell id="DnySy9knM9GUUwWtsOCn-22" value="Кандидат" style="shape=note;whiteSpace=wrap;html=1;backgroundOutline=1;darkOpacity=0.05;fillColor=#FEE750;strokeColor=none;fontSize=18;fontStyle=0;rotation=0;shadow=1;rounded=0;align=center;verticalAlign=middle;fontFamily=Helvetica;fontColor=#4D4D4D;" parent="1" vertex="1">
          <mxGeometry x="1480" y="320" width="120" height="120" as="geometry" />
        </mxCell>
        <mxCell id="DnySy9knM9GUUwWtsOCn-23" value="выполнить задание" style="rounded=0;whiteSpace=wrap;html=1;fillColor=#dae8fc;strokeColor=#6c8ebf;align=center;verticalAlign=middle;fontFamily=Helvetica;fontSize=12;fontColor=#4D4D4D;" parent="1" vertex="1">
          <mxGeometry x="1600" y="350" width="120" height="60" as="geometry" />
        </mxCell>
        <mxCell id="Me_CcijvVL-KQF1pLB6K-17" style="edgeStyle=orthogonalEdgeStyle;rounded=0;orthogonalLoop=1;jettySize=auto;html=1;exitX=0.7;exitY=1;exitDx=0;exitDy=0;exitPerimeter=0;jumpStyle=arc;" edge="1" parent="1" source="DnySy9knM9GUUwWtsOCn-24" target="DnySy9knM9GUUwWtsOCn-45">
          <mxGeometry relative="1" as="geometry">
            <Array as="points">
              <mxPoint x="1804" y="460" />
              <mxPoint x="2330" y="460" />
            </Array>
          </mxGeometry>
        </mxCell>
        <mxCell id="Me_CcijvVL-KQF1pLB6K-20" style="edgeStyle=orthogonalEdgeStyle;rounded=0;orthogonalLoop=1;jettySize=auto;html=1;exitX=0.5;exitY=1;exitDx=0;exitDy=0;entryX=0.5;entryY=0;entryDx=0;entryDy=0;" edge="1" parent="1" source="DnySy9knM9GUUwWtsOCn-24" target="DnySy9knM9GUUwWtsOCn-41">
          <mxGeometry relative="1" as="geometry" />
        </mxCell>
        <mxCell id="DnySy9knM9GUUwWtsOCn-24" value="кандидат выполнил задание" style="rounded=0;whiteSpace=wrap;html=1;fillColor=#f0a30a;strokeColor=#BD7000;fontColor=#ffffff;" parent="1" vertex="1">
          <mxGeometry x="1720" y="380" width="120" height="60" as="geometry" />
        </mxCell>
        <mxCell id="DnySy9knM9GUUwWtsOCn-26" value="назначенное на кандидата задание" style="rounded=0;whiteSpace=wrap;html=1;fillColor=#60a917;strokeColor=#2D7600;fontColor=#ffffff;align=center;verticalAlign=middle;fontFamily=Helvetica;fontSize=12;" parent="1" vertex="1">
          <mxGeometry x="1360" y="350" width="120" height="60" as="geometry" />
        </mxCell>
        <mxCell id="DnySy9knM9GUUwWtsOCn-27" style="edgeStyle=orthogonalEdgeStyle;rounded=0;orthogonalLoop=1;jettySize=auto;html=1;exitX=0.75;exitY=0;exitDx=0;exitDy=0;fontFamily=Helvetica;fontSize=12;fontColor=#ffffff;jumpStyle=arc;" parent="1" source="DnySy9knM9GUUwWtsOCn-3" target="DnySy9knM9GUUwWtsOCn-2" edge="1">
          <mxGeometry relative="1" as="geometry">
            <Array as="points">
              <mxPoint x="810" y="20" />
              <mxPoint x="2830" y="20" />
            </Array>
          </mxGeometry>
        </mxCell>
        <mxCell id="DnySy9knM9GUUwWtsOCn-59" style="edgeStyle=orthogonalEdgeStyle;rounded=0;orthogonalLoop=1;jettySize=auto;html=1;exitX=1;exitY=0.5;exitDx=0;exitDy=0;entryX=0;entryY=0.5;entryDx=0;entryDy=0;fontFamily=Helvetica;fontSize=12;fontColor=#ffffff;jumpStyle=arc;" parent="1" source="DnySy9knM9GUUwWtsOCn-34" target="DnySy9knM9GUUwWtsOCn-26" edge="1">
          <mxGeometry relative="1" as="geometry" />
        </mxCell>
        <mxCell id="DnySy9knM9GUUwWtsOCn-34" value="Задание для кандидата назначено" style="rounded=0;whiteSpace=wrap;html=1;fillColor=#f0a30a;strokeColor=#BD7000;fontColor=#ffffff;" parent="1" vertex="1">
          <mxGeometry x="1170" y="130" width="120" height="60" as="geometry" />
        </mxCell>
        <mxCell id="DnySy9knM9GUUwWtsOCn-36" value="Менеджер" style="shape=note;whiteSpace=wrap;html=1;backgroundOutline=1;darkOpacity=0.05;fillColor=#FEE750;strokeColor=none;fontSize=18;fontStyle=0;rotation=0;shadow=1;rounded=0;align=center;verticalAlign=middle;fontFamily=Helvetica;fontColor=#4D4D4D;" parent="1" vertex="1">
          <mxGeometry x="930" y="90" width="120" height="120" as="geometry" />
        </mxCell>
        <mxCell id="DnySy9knM9GUUwWtsOCn-37" value="Назначить задание для кандидата" style="rounded=0;whiteSpace=wrap;html=1;fillColor=#dae8fc;strokeColor=#6c8ebf;align=center;verticalAlign=middle;fontFamily=Helvetica;fontSize=12;fontColor=#4D4D4D;" parent="1" vertex="1">
          <mxGeometry x="1050" y="130" width="120" height="60" as="geometry" />
        </mxCell>
        <mxCell id="DnySy9knM9GUUwWtsOCn-41" value="Система для учителей" style="rounded=0;whiteSpace=wrap;html=1;fillColor=#ffe6cc;strokeColor=#d79b00;align=center;verticalAlign=middle;fontFamily=Helvetica;fontSize=12;fontColor=#4D4D4D;" parent="1" vertex="1">
          <mxGeometry x="1720" y="500" width="120" height="60" as="geometry" />
        </mxCell>
        <mxCell id="Me_CcijvVL-KQF1pLB6K-8" style="edgeStyle=orthogonalEdgeStyle;rounded=0;orthogonalLoop=1;jettySize=auto;html=1;exitX=1;exitY=0.5;exitDx=0;exitDy=0;entryX=0;entryY=0.5;entryDx=0;entryDy=0;jumpStyle=arc;" edge="1" parent="1" source="DnySy9knM9GUUwWtsOCn-43" target="Me_CcijvVL-KQF1pLB6K-5">
          <mxGeometry relative="1" as="geometry" />
        </mxCell>
        <mxCell id="DnySy9knM9GUUwWtsOCn-43" value="рейнтинг задания обновлен" style="rounded=0;whiteSpace=wrap;html=1;fillColor=#f0a30a;strokeColor=#BD7000;fontColor=#ffffff;" parent="1" vertex="1">
          <mxGeometry x="1960" y="350" width="120" height="60" as="geometry" />
        </mxCell>
        <mxCell id="DnySy9knM9GUUwWtsOCn-44" value="обновить рейтинг задания" style="rounded=0;whiteSpace=wrap;html=1;fillColor=#dae8fc;strokeColor=#6c8ebf;align=center;verticalAlign=middle;fontFamily=Helvetica;fontSize=12;fontColor=#4D4D4D;" parent="1" vertex="1">
          <mxGeometry x="1840" y="350" width="120" height="60" as="geometry" />
        </mxCell>
        <mxCell id="DnySy9knM9GUUwWtsOCn-45" value="перерасчитать бонусный счет" style="rounded=0;whiteSpace=wrap;html=1;fillColor=#dae8fc;strokeColor=#6c8ebf;align=center;verticalAlign=middle;fontFamily=Helvetica;fontSize=12;fontColor=#4D4D4D;" parent="1" vertex="1">
          <mxGeometry x="2270" y="380" width="120" height="60" as="geometry" />
        </mxCell>
        <mxCell id="DnySy9knM9GUUwWtsOCn-50" value="бонусный счет менеджера обновлен" style="rounded=0;whiteSpace=wrap;html=1;fillColor=#f0a30a;strokeColor=#BD7000;fontColor=#ffffff;" parent="1" vertex="1">
          <mxGeometry x="2390" y="380" width="120" height="60" as="geometry" />
        </mxCell>
        <mxCell id="DnySy9knM9GUUwWtsOCn-51" value="&lt;font style=&quot;color: rgb(77, 77, 77);&quot;&gt;cron&lt;/font&gt;" style="rounded=0;whiteSpace=wrap;html=1;fillColor=#ffe6cc;strokeColor=#d79b00;align=center;verticalAlign=middle;fontFamily=Helvetica;fontSize=12;fontColor=#ffffff;" parent="1" vertex="1">
          <mxGeometry x="2540" y="380" width="120" height="60" as="geometry" />
        </mxCell>
        <mxCell id="DnySy9knM9GUUwWtsOCn-52" value="рассчитать месячную выплату менеджеру" style="rounded=0;whiteSpace=wrap;html=1;fillColor=#dae8fc;strokeColor=#6c8ebf;align=center;verticalAlign=middle;fontFamily=Helvetica;fontSize=12;fontColor=#4D4D4D;" parent="1" vertex="1">
          <mxGeometry x="2660" y="380" width="120" height="60" as="geometry" />
        </mxCell>
        <mxCell id="Me_CcijvVL-KQF1pLB6K-21" value="" style="edgeStyle=orthogonalEdgeStyle;rounded=0;orthogonalLoop=1;jettySize=auto;html=1;" edge="1" parent="1" source="DnySy9knM9GUUwWtsOCn-53" target="DnySy9knM9GUUwWtsOCn-54">
          <mxGeometry relative="1" as="geometry" />
        </mxCell>
        <mxCell id="DnySy9knM9GUUwWtsOCn-53" value="выплата менеджеру расчитана" style="rounded=0;whiteSpace=wrap;html=1;fillColor=#f0a30a;strokeColor=#BD7000;fontColor=#ffffff;" parent="1" vertex="1">
          <mxGeometry x="2780" y="380" width="120" height="60" as="geometry" />
        </mxCell>
        <mxCell id="DnySy9knM9GUUwWtsOCn-54" value="&lt;font color=&quot;#4d4d4d&quot;&gt;GolmanSachsLemanBrazzersTransactions&lt;/font&gt;" style="rounded=0;whiteSpace=wrap;html=1;fillColor=#ffe6cc;strokeColor=#d79b00;align=center;verticalAlign=middle;fontFamily=Helvetica;fontSize=12;fontColor=#ffffff;" parent="1" vertex="1">
          <mxGeometry x="2720" y="500" width="240" height="60" as="geometry" />
        </mxCell>
        <mxCell id="DnySy9knM9GUUwWtsOCn-61" value="бонус выплачен" style="rounded=0;whiteSpace=wrap;html=1;fillColor=#d0cee2;strokeColor=#56517e;align=center;verticalAlign=middle;fontFamily=Helvetica;fontSize=12;fontColor=#ffffff;" parent="1" vertex="1">
          <mxGeometry x="2900" y="380" width="120" height="60" as="geometry" />
        </mxCell>
        <mxCell id="DnySy9knM9GUUwWtsOCn-62" value="обнулить баланс" style="rounded=0;whiteSpace=wrap;html=1;fillColor=#dae8fc;strokeColor=#6c8ebf;align=center;verticalAlign=middle;fontFamily=Helvetica;fontSize=12;fontColor=#4D4D4D;" parent="1" vertex="1">
          <mxGeometry x="3020" y="380" width="120" height="60" as="geometry" />
        </mxCell>
        <mxCell id="DnySy9knM9GUUwWtsOCn-63" value="бонусный счет менеджера обнулен" style="rounded=0;whiteSpace=wrap;html=1;fillColor=#f0a30a;strokeColor=#BD7000;fontColor=#ffffff;" parent="1" vertex="1">
          <mxGeometry x="3140" y="380" width="120" height="60" as="geometry" />
        </mxCell>
        <mxCell id="Me_CcijvVL-KQF1pLB6K-4" style="edgeStyle=orthogonalEdgeStyle;rounded=0;orthogonalLoop=1;jettySize=auto;html=1;exitX=0.75;exitY=0;exitDx=0;exitDy=0;entryX=0;entryY=0.5;entryDx=0;entryDy=0;jumpStyle=arc;" edge="1" parent="1" source="Me_CcijvVL-KQF1pLB6K-1" target="DnySy9knM9GUUwWtsOCn-2">
          <mxGeometry relative="1" as="geometry" />
        </mxCell>
        <mxCell id="Me_CcijvVL-KQF1pLB6K-1" value="Отредактировано задание" style="rounded=0;whiteSpace=wrap;html=1;fillColor=#f0a30a;strokeColor=#BD7000;fontColor=#ffffff;" vertex="1" parent="1">
          <mxGeometry x="2560" y="130" width="120" height="60" as="geometry" />
        </mxCell>
        <mxCell id="Me_CcijvVL-KQF1pLB6K-2" value="Менеджер" style="shape=note;whiteSpace=wrap;html=1;backgroundOutline=1;darkOpacity=0.05;fillColor=#FEE750;strokeColor=none;fontSize=18;fontStyle=0;rotation=0;shadow=1;rounded=0;align=center;verticalAlign=middle;fontFamily=Helvetica;fontColor=#4D4D4D;" vertex="1" parent="1">
          <mxGeometry x="2320" y="100" width="120" height="120" as="geometry" />
        </mxCell>
        <mxCell id="Me_CcijvVL-KQF1pLB6K-3" value="Отредактировать задание" style="rounded=0;whiteSpace=wrap;html=1;fillColor=#dae8fc;strokeColor=#6c8ebf;align=center;verticalAlign=middle;fontFamily=Helvetica;fontSize=12;fontColor=#4D4D4D;" vertex="1" parent="1">
          <mxGeometry x="2440" y="130" width="120" height="60" as="geometry" />
        </mxCell>
        <mxCell id="Me_CcijvVL-KQF1pLB6K-5" value="задание выполнено больше 10 раз" style="rounded=0;whiteSpace=wrap;html=1;fillColor=#d0cee2;strokeColor=#56517e;align=center;verticalAlign=middle;fontFamily=Helvetica;fontSize=12;fontColor=#ffffff;" vertex="1" parent="1">
          <mxGeometry x="2200" y="130" width="120" height="60" as="geometry" />
        </mxCell>
        <mxCell id="Me_CcijvVL-KQF1pLB6K-19" style="edgeStyle=orthogonalEdgeStyle;rounded=0;orthogonalLoop=1;jettySize=auto;html=1;exitX=0.5;exitY=0;exitDx=0;exitDy=0;jumpStyle=arc;" edge="1" parent="1" source="DnySy9knM9GUUwWtsOCn-40" target="DnySy9knM9GUUwWtsOCn-45">
          <mxGeometry relative="1" as="geometry">
            <Array as="points">
              <mxPoint x="1780" y="310" />
              <mxPoint x="2170" y="310" />
              <mxPoint x="2170" y="410" />
            </Array>
          </mxGeometry>
        </mxCell>
        <mxCell id="DnySy9knM9GUUwWtsOCn-40" value="кандинат провалил задание" style="rounded=0;whiteSpace=wrap;html=1;fillColor=#f0a30a;strokeColor=#BD7000;fontColor=#ffffff;" parent="1" vertex="1">
          <mxGeometry x="1720" y="320" width="120" height="60" as="geometry" />
        </mxCell>
        <mxCell id="Me_CcijvVL-KQF1pLB6K-22" value="это событие по идее «возвращает» нас по таймлайну к назначению кандидата, ну или просто даже менеджер необязательно редачит только по достижению полиси, но не знаю, надо ли показывать это как-то..." style="rounded=0;whiteSpace=wrap;html=1;" vertex="1" parent="1">
          <mxGeometry x="2660" y="170" width="230" height="120" as="geometry" />
        </mxCell>
        <mxCell id="Me_CcijvVL-KQF1pLB6K-23" value="тут вот вроде и «нельзя» так делать, но городить после полиси команду с событием вижу нецелесообразным если честно..." style="rounded=0;whiteSpace=wrap;html=1;" vertex="1" parent="1">
          <mxGeometry x="2150" y="30" width="170" height="100" as="geometry" />
        </mxCell>
      </root>
    </mxGraphModel>
  </diagram>
</mxfile>
